# xmcd CD database file
#
# Track frame offsets:
#	150
#	11834
#	21446
#	30986
#	42376
#	52912
#	64768
#	77435
#	93526
#	117670
#	130845
#	148141
#	167162
#	180370
#	199860
#	206933
#	222542
#	237171
#	251799
#	262863
#	277018
#	291611
#	304445
#	318042
#	331205
#
# Disc length: 4602 seconds
#
# Revision: 0
# Processed by: cddbd v1.5.2PL0 Copyright (c) Steve Scherf et al.
# Submitted via: CDex 1.70beta2
#
DISCID=8011f819
DTITLE=Greenhorns - Zlatá éra 1975 - 1991 [CD2)
DYEAR=2007
DGENRE=Country
TTITLE0=C model
TTITLE1=Kočovníci
TTITLE2=Směr Jižní Austrálie
TTITLE3=Umírající pastevec
TTITLE4=Vazoun Bill a bicykl
TTITLE5=Vostrej australák
TTITLE6=Zlaté dny
TTITLE7=Blizzard
TTITLE8=Dlouhý černý závoj
TTITLE9=Abilene
TTITLE10=Kluk z plání
TTITLE11=Pod Liščí skálou
TTITLE12=Mistře Buriane, díky za ten svět
TTITLE13=Ten sen jsem míval
TTITLE14=Vyju na měsíc
TTITLE15=Mimozemšťan
TTITLE16=Frankie a Johnny
TTITLE17=Dvakrát do stejné řeky
TTITLE18=Já život jsem jak trampskej bágl lehce rozbalil
TTITLE19=Mistr Čas
TTITLE20=Zelenáč
TTITLE21=Písně Mississippi slyším zas
TTITLE22=Odmítám zapomenout
TTITLE23=Zatracenej život
TTITLE24=Ďábelský sen
EXTD=YEAR: 2007
EXTT0=
EXTT1=
EXTT2=
EXTT3=
EXTT4=
EXTT5=
EXTT6=
EXTT7=
EXTT8=
EXTT9=
EXTT10=
EXTT11=
EXTT12=
EXTT13=
EXTT14=
EXTT15=
EXTT16=
EXTT17=
EXTT18=
EXTT19=
EXTT20=
EXTT21=
EXTT22=
EXTT23=
EXTT24=
PLAYORDER=
